M48
;DRILL file {kicad (2015-03-06 BZR 5484)-product} date 10/25/2015 10:49:38 PM
;FORMAT={-:-/ absolute / metric / decimal}
FMAT,2
METRIC,TZ
T1C0.330
T2C0.762
T3C1.016
T4C1.200
%
G90
G05
M71
T1
X145.415Y-99.417
X145.415Y-101.958
X146.685Y-99.417
X146.685Y-101.958
X147.32Y-130.81
X147.32Y-132.08
X147.32Y-133.35
X148.59Y-121.285
X148.59Y-128.905
X149.86Y-121.285
X151.13Y-99.417
X151.13Y-101.958
X151.13Y-121.285
X152.4Y-121.285
X152.4Y-127.
X152.4Y-130.81
X152.4Y-132.08
X152.4Y-133.35
X153.035Y-99.417
X153.035Y-101.958
X154.305Y-123.19
X154.94Y-125.73
X155.511Y-129.223
X155.575Y-120.015
X156.845Y-120.015
X157.48Y-110.49
X157.48Y-113.665
X157.48Y-129.223
X158.115Y-120.015
X158.115Y-125.73
X158.242Y-124.206
X158.75Y-110.49
X158.75Y-113.665
X158.75Y-118.11
X159.004Y-124.968
X160.02Y-116.205
X160.02Y-117.475
X160.02Y-129.223
X160.274Y-119.761
X160.655Y-111.125
X161.29Y-129.223
X162.56Y-129.223
X163.195Y-108.585
X163.195Y-111.125
X163.83Y-123.19
X163.83Y-129.223
X164.465Y-104.498
X164.465Y-105.41
X167.005Y-106.68
X168.275Y-101.703
T2
X160.274Y-123.571
T3
X146.05Y-94.337
X146.05Y-107.037
X148.59Y-94.337
X148.59Y-107.037
X151.13Y-94.337
X151.13Y-107.037
X153.67Y-94.337
X153.67Y-107.037
X156.21Y-94.337
X156.21Y-107.037
X156.845Y-99.417
X156.845Y-101.958
X158.75Y-94.337
X158.75Y-107.037
X159.385Y-99.417
X159.385Y-101.958
X161.29Y-94.337
X161.29Y-107.037
X161.925Y-99.417
X161.925Y-101.958
X163.83Y-94.337
X163.83Y-107.037
T4
X142.685Y-88.2
X146.185Y-88.2
X149.685Y-88.2
X153.185Y-88.2
X156.685Y-88.2
X160.185Y-88.2
X163.685Y-88.2
X167.185Y-88.2
T0
M30
