G04 #@! TF.FileFunction,Copper,L2,Bot,Signal*
%FSLAX46Y46*%
G04 Gerber Fmt 4.6, Leading zero omitted, Abs format (unit mm)*
G04 Created by KiCad (PCBNEW (2015-03-06 BZR 5484)-product) date 10/6/2015 9:14:59 PM*
%MOMM*%
G01*
G04 APERTURE LIST*
%ADD10C,0.100000*%
%ADD11C,0.177800*%
%ADD12C,2.500000*%
%ADD13R,2.500000X2.500000*%
%ADD14R,1.270000X4.191000*%
%ADD15C,0.635000*%
%ADD16R,1.000000X1.250000*%
%ADD17R,0.450000X1.450000*%
%ADD18C,0.685800*%
%ADD19C,1.117600*%
%ADD20C,0.600000*%
%ADD21C,0.254000*%
%ADD22C,0.381000*%
G04 APERTURE END LIST*
D10*
D11*
X162470775Y-123099665D02*
G75*
G02X162668356Y-122973881I170002J-48967D01*
G01*
X163063507Y-122686385D02*
G75*
G02X162668356Y-122973881I-335666J46051D01*
G01*
X163062780Y-123584302D02*
G75*
G02X164859538Y-121788487I449720J1346802D01*
G01*
X165308549Y-122686513D02*
G75*
G03X164859538Y-121788487I-1308519J-92991D01*
G01*
X165196298Y-122574260D02*
G75*
G03X164522779Y-122125247I-561266J-112253D01*
G01*
X165308551Y-122686513D02*
X165196298Y-122574260D01*
X164522779Y-122125247D02*
X164410526Y-122237500D01*
X164635032Y-122912816D02*
G75*
G03X164410526Y-122237500I-449911J225405D01*
G01*
X164635032Y-122911019D02*
G75*
G03X164186019Y-122462006I-449013J0D01*
G01*
X164186254Y-122461537D02*
G75*
G02X163737006Y-122911019I-898258J448541D01*
G01*
X164186019Y-123360032D02*
G75*
G02X163737006Y-122911019I0J449013D01*
G01*
X164187816Y-123360032D02*
G75*
G02X163512500Y-123135526I-225405J449911D01*
G01*
X163400247Y-123247779D02*
X163512500Y-123135526D01*
X163961513Y-124033551D02*
X163849260Y-123921298D01*
X163849260Y-123921298D02*
G75*
G02X163400247Y-123247779I112253J561266D01*
G01*
X163961513Y-124033549D02*
G75*
G02X163063487Y-123584538I92991J1308519D01*
G01*
X162578554Y-121662763D02*
G75*
G02X162219343Y-121662764I-179606J179605D01*
G01*
X162578553Y-121662763D02*
G75*
G02X162901843Y-121626843I179605J-143685D01*
G01*
X163979473Y-121662764D02*
G75*
G02X164123157Y-121052106I377171J233487D01*
G01*
D12*
X142440000Y-90505000D03*
X147440000Y-90505000D03*
X152440000Y-90505000D03*
D13*
X167440000Y-90505000D03*
D12*
X162440000Y-90505000D03*
X157440000Y-90505000D03*
D14*
X146050000Y-132080000D03*
X148590000Y-132080000D03*
X151130000Y-132080000D03*
X153670000Y-132080000D03*
X156210000Y-132080000D03*
X158750000Y-132080000D03*
X161290000Y-132080000D03*
X163830000Y-132080000D03*
D15*
X163961513Y-121788487D03*
X163063487Y-122686513D03*
X163063487Y-121788487D03*
D16*
X155940000Y-97490000D03*
X153940000Y-97490000D03*
D17*
X154895000Y-121510000D03*
X155545000Y-121510000D03*
X156195000Y-121510000D03*
X156845000Y-121510000D03*
X157495000Y-121510000D03*
X158145000Y-121510000D03*
X158795000Y-121510000D03*
X158795000Y-127410000D03*
X158145000Y-127410000D03*
X157495000Y-127410000D03*
X156845000Y-127410000D03*
X156195000Y-127410000D03*
X155545000Y-127410000D03*
X154895000Y-127410000D03*
D18*
X152400000Y-133350000D03*
X152400000Y-132080000D03*
X152400000Y-130810000D03*
X153670000Y-126682500D03*
X151447500Y-126682500D03*
X148590000Y-126682500D03*
X146367500Y-127952500D03*
X145732500Y-126682500D03*
X147320000Y-133350000D03*
X147320000Y-132080000D03*
X147320000Y-130810000D03*
X144145000Y-113030000D03*
X145097500Y-117792500D03*
D19*
X165100000Y-123825000D03*
D18*
X161290000Y-124142500D03*
X157480000Y-124142500D03*
X153987500Y-121602500D03*
X157480000Y-129222500D03*
X153987500Y-128270000D03*
X154940000Y-129222500D03*
X162560000Y-129222500D03*
X161290000Y-129222500D03*
X159067500Y-123190000D03*
X163830000Y-129222500D03*
D20*
X156527500Y-95267500D03*
X151765000Y-95885000D03*
X152717500Y-95885000D03*
X153670000Y-95885000D03*
X154622500Y-100030000D03*
X155892500Y-100030000D03*
X157162500Y-100030000D03*
X153352500Y-100030000D03*
X148907500Y-106380000D03*
X148907500Y-104475000D03*
X148907500Y-98760000D03*
X148907500Y-100665000D03*
X148907500Y-102570000D03*
X160972500Y-102570000D03*
X160972500Y-100665000D03*
X160972500Y-98760000D03*
X160972500Y-104475000D03*
X157162500Y-107632500D03*
X155892500Y-107632500D03*
X154622500Y-107632500D03*
X153352500Y-107632500D03*
X160972500Y-106362500D03*
D18*
X160337500Y-123190000D03*
D11*
X152400000Y-132080000D02*
X152400000Y-130810000D01*
X151130000Y-132080000D02*
X152400000Y-133350000D01*
X153670000Y-132080000D02*
X152400000Y-133350000D01*
X146050000Y-132080000D02*
X147320000Y-133350000D01*
X147320000Y-132080000D02*
X147320000Y-130810000D01*
D21*
X142440000Y-107515000D02*
X144145000Y-109220000D01*
X144145000Y-113030000D02*
X144145000Y-121285000D01*
X144145000Y-109220000D02*
X144145000Y-113030000D01*
X142440000Y-90505000D02*
X142440000Y-107515000D01*
X145750000Y-90505000D02*
X145732500Y-90487500D01*
X147440000Y-90505000D02*
X145750000Y-90505000D01*
X145097500Y-109220000D02*
X145097500Y-117792500D01*
X143192500Y-107315000D02*
X145097500Y-109220000D01*
X143192500Y-92392500D02*
X143192500Y-107315000D01*
X145080000Y-90505000D02*
X143192500Y-92392500D01*
X145750000Y-90505000D02*
X145080000Y-90505000D01*
X145415000Y-120332500D02*
X145097500Y-120015000D01*
X145097500Y-120015000D02*
X145097500Y-117792500D01*
X153670000Y-122872500D02*
X153035000Y-122237500D01*
X153035000Y-122237500D02*
X153035000Y-120650000D01*
X153035000Y-120650000D02*
X152717500Y-120332500D01*
X152717500Y-120332500D02*
X145732500Y-120332500D01*
X156195000Y-121510000D02*
X156195000Y-122570000D01*
X153987500Y-122872500D02*
X153670000Y-122872500D01*
X155892500Y-122872500D02*
X153987500Y-122872500D01*
X156195000Y-122570000D02*
X155892500Y-122872500D01*
X145732500Y-120332500D02*
X145415000Y-120332500D01*
D22*
X157480000Y-124142500D02*
X161290000Y-124142500D01*
X154080000Y-121510000D02*
X153987500Y-121602500D01*
X154895000Y-121510000D02*
X154080000Y-121510000D01*
D21*
X156845000Y-128587500D02*
X156845000Y-127410000D01*
X156845000Y-128587500D02*
X157480000Y-129222500D01*
X148590000Y-129540000D02*
X148907500Y-129222500D01*
X148907500Y-129222500D02*
X150177500Y-129222500D01*
X153035000Y-129222500D02*
X150177500Y-129222500D01*
X153987500Y-128270000D02*
X153035000Y-129222500D01*
X148590000Y-129540000D02*
X148590000Y-132080000D01*
X155575000Y-128587500D02*
X154940000Y-129222500D01*
X155575000Y-128587500D02*
X155545000Y-127410000D01*
X156210000Y-127425000D02*
X156195000Y-127410000D01*
X156210000Y-132080000D02*
X156210000Y-127425000D01*
X158750000Y-132080000D02*
X158750000Y-130175000D01*
X158145000Y-128617500D02*
X158145000Y-127410000D01*
X158432500Y-128905000D02*
X158145000Y-128617500D01*
X160337500Y-128905000D02*
X158432500Y-128905000D01*
X160972500Y-128270000D02*
X160337500Y-128905000D01*
X161607500Y-128270000D02*
X160972500Y-128270000D01*
X162560000Y-129222500D02*
X161607500Y-128270000D01*
X161290000Y-132080000D02*
X161290000Y-129222500D01*
X159067500Y-123190000D02*
X157162500Y-123190000D01*
X157162500Y-123190000D02*
X156845000Y-122872500D01*
X156845000Y-122872500D02*
X156845000Y-121510000D01*
X163830000Y-129222500D02*
X163830000Y-132080000D01*
X158795000Y-126637500D02*
X159067500Y-126365000D01*
X159067500Y-126365000D02*
X163512500Y-126365000D01*
X163512500Y-126365000D02*
X163830000Y-126682500D01*
X163830000Y-126682500D02*
X163830000Y-129222500D01*
X158795000Y-127410000D02*
X158795000Y-126637500D01*
X155940000Y-98712500D02*
X155940000Y-97490000D01*
X155892500Y-95902500D02*
X155892500Y-97442500D01*
X156527500Y-95267500D02*
X155892500Y-95902500D01*
X155892500Y-97442500D02*
X155940000Y-97490000D01*
X155257500Y-99395000D02*
X155940000Y-98712500D01*
X153035000Y-99395000D02*
X155257500Y-99395000D01*
X152400000Y-100030000D02*
X153035000Y-99395000D01*
X152400000Y-106362500D02*
X152400000Y-100030000D01*
X152400000Y-106380000D02*
X152400000Y-106362500D01*
X155545000Y-120302500D02*
X154940000Y-119697500D01*
X152400000Y-117792500D02*
X152400000Y-106362500D01*
X154305000Y-119697500D02*
X154940000Y-119697500D01*
X152400000Y-117792500D02*
X154305000Y-119697500D01*
X155545000Y-121510000D02*
X155545000Y-120302500D01*
X151765000Y-95885000D02*
X152717500Y-95885000D01*
X155892500Y-100030000D02*
X157162500Y-100030000D01*
X153352500Y-100030000D02*
X154622500Y-100030000D01*
X148907500Y-98760000D02*
X148907500Y-104475000D01*
X148907500Y-102570000D02*
X148907500Y-100665000D01*
X160972500Y-102570000D02*
X160972500Y-100665000D01*
X160972500Y-98760000D02*
X160972500Y-104475000D01*
X158415000Y-106380000D02*
X157162500Y-107632500D01*
X155892500Y-107632500D02*
X154622500Y-107632500D01*
X153352500Y-107632500D02*
X153352500Y-108267500D01*
X160972500Y-106362500D02*
X158415000Y-106380000D01*
X160020000Y-123190000D02*
X160337500Y-123190000D01*
X158795000Y-121965000D02*
X160020000Y-123190000D01*
X158795000Y-121510000D02*
X158795000Y-121965000D01*
D11*
G36*
X154851100Y-134782100D02*
X149948900Y-134782100D01*
X149948900Y-129692400D01*
X150177500Y-129692400D01*
X153035000Y-129692400D01*
X153035000Y-129692399D01*
X153214823Y-129656631D01*
X153367269Y-129554769D01*
X153610638Y-129311400D01*
X154254121Y-129311400D01*
X154254081Y-129358316D01*
X154358268Y-129610467D01*
X154551018Y-129803554D01*
X154802987Y-129908181D01*
X154851100Y-129908222D01*
X154851100Y-134782100D01*
X154851100Y-134782100D01*
G37*
X154851100Y-134782100D02*
X149948900Y-134782100D01*
X149948900Y-129692400D01*
X150177500Y-129692400D01*
X153035000Y-129692400D01*
X153035000Y-129692399D01*
X153214823Y-129656631D01*
X153367269Y-129554769D01*
X153610638Y-129311400D01*
X154254121Y-129311400D01*
X154254081Y-129358316D01*
X154358268Y-129610467D01*
X154551018Y-129803554D01*
X154802987Y-129908181D01*
X154851100Y-129908222D01*
X154851100Y-134782100D01*
G36*
X155168600Y-126374316D02*
X155074339Y-126436236D01*
X154997417Y-126550194D01*
X154970382Y-126685000D01*
X154970382Y-128135000D01*
X154995750Y-128265747D01*
X155071236Y-128380661D01*
X155098736Y-128399224D01*
X154961243Y-128536718D01*
X154804184Y-128536581D01*
X154581105Y-128628755D01*
X154673181Y-128407013D01*
X154673419Y-128134184D01*
X154569232Y-127882033D01*
X154376482Y-127688946D01*
X154124513Y-127584319D01*
X153851684Y-127584081D01*
X153599533Y-127688268D01*
X153406446Y-127881018D01*
X153301819Y-128132987D01*
X153301680Y-128291280D01*
X152840361Y-128752600D01*
X150177500Y-128752600D01*
X148907500Y-128752600D01*
X148727677Y-128788369D01*
X148575231Y-128890230D01*
X148257731Y-129207731D01*
X148155869Y-129360177D01*
X148120100Y-129540000D01*
X148120100Y-129634882D01*
X147955000Y-129634882D01*
X147824253Y-129660250D01*
X147709339Y-129735736D01*
X147632417Y-129849694D01*
X147605382Y-129984500D01*
X147605382Y-134175500D01*
X147630750Y-134306247D01*
X147706236Y-134421161D01*
X147820194Y-134498083D01*
X147955000Y-134525118D01*
X149225000Y-134525118D01*
X149355747Y-134499750D01*
X149470661Y-134424264D01*
X149517100Y-134355465D01*
X149517100Y-134782100D01*
X143927900Y-134782100D01*
X143927900Y-130200000D01*
X143916400Y-130142186D01*
X143916400Y-120103900D01*
X144645283Y-120103900D01*
X144663369Y-120194823D01*
X144765231Y-120347269D01*
X145082731Y-120664770D01*
X145235177Y-120766631D01*
X145415000Y-120802400D01*
X145732500Y-120802400D01*
X152522861Y-120802400D01*
X152565100Y-120844638D01*
X152565100Y-122237500D01*
X152600869Y-122417323D01*
X152702731Y-122569769D01*
X153337731Y-123204770D01*
X153490177Y-123306631D01*
X153670000Y-123342400D01*
X153987500Y-123342400D01*
X155168600Y-123342400D01*
X155168600Y-126374316D01*
X155168600Y-126374316D01*
G37*
X155168600Y-126374316D02*
X155074339Y-126436236D01*
X154997417Y-126550194D01*
X154970382Y-126685000D01*
X154970382Y-128135000D01*
X154995750Y-128265747D01*
X155071236Y-128380661D01*
X155098736Y-128399224D01*
X154961243Y-128536718D01*
X154804184Y-128536581D01*
X154581105Y-128628755D01*
X154673181Y-128407013D01*
X154673419Y-128134184D01*
X154569232Y-127882033D01*
X154376482Y-127688946D01*
X154124513Y-127584319D01*
X153851684Y-127584081D01*
X153599533Y-127688268D01*
X153406446Y-127881018D01*
X153301819Y-128132987D01*
X153301680Y-128291280D01*
X152840361Y-128752600D01*
X150177500Y-128752600D01*
X148907500Y-128752600D01*
X148727677Y-128788369D01*
X148575231Y-128890230D01*
X148257731Y-129207731D01*
X148155869Y-129360177D01*
X148120100Y-129540000D01*
X148120100Y-129634882D01*
X147955000Y-129634882D01*
X147824253Y-129660250D01*
X147709339Y-129735736D01*
X147632417Y-129849694D01*
X147605382Y-129984500D01*
X147605382Y-134175500D01*
X147630750Y-134306247D01*
X147706236Y-134421161D01*
X147820194Y-134498083D01*
X147955000Y-134525118D01*
X149225000Y-134525118D01*
X149355747Y-134499750D01*
X149470661Y-134424264D01*
X149517100Y-134355465D01*
X149517100Y-134782100D01*
X143927900Y-134782100D01*
X143927900Y-130200000D01*
X143916400Y-130142186D01*
X143916400Y-120103900D01*
X144645283Y-120103900D01*
X144663369Y-120194823D01*
X144765231Y-120347269D01*
X145082731Y-120664770D01*
X145235177Y-120766631D01*
X145415000Y-120802400D01*
X145732500Y-120802400D01*
X152522861Y-120802400D01*
X152565100Y-120844638D01*
X152565100Y-122237500D01*
X152600869Y-122417323D01*
X152702731Y-122569769D01*
X153337731Y-123204770D01*
X153490177Y-123306631D01*
X153670000Y-123342400D01*
X153987500Y-123342400D01*
X155168600Y-123342400D01*
X155168600Y-126374316D01*
G36*
X165011100Y-91738176D02*
X164428176Y-92321100D01*
X155611824Y-92321100D01*
X155028900Y-91738176D01*
X155028900Y-87417900D01*
X165011100Y-87417900D01*
X165011100Y-91738176D01*
X165011100Y-91738176D01*
G37*
X165011100Y-91738176D02*
X164428176Y-92321100D01*
X155611824Y-92321100D01*
X155028900Y-91738176D01*
X155028900Y-87417900D01*
X165011100Y-87417900D01*
X165011100Y-91738176D01*
G36*
X154851100Y-98925100D02*
X153035000Y-98925100D01*
X152855177Y-98960869D01*
X152813674Y-98988600D01*
X149948900Y-98988600D01*
X149948900Y-87417900D01*
X154597100Y-87417900D01*
X154597100Y-91917034D01*
X154851100Y-92171034D01*
X154851100Y-98925100D01*
X154851100Y-98925100D01*
G37*
X154851100Y-98925100D02*
X153035000Y-98925100D01*
X152855177Y-98960869D01*
X152813674Y-98988600D01*
X149948900Y-98988600D01*
X149948900Y-87417900D01*
X154597100Y-87417900D01*
X154597100Y-91917034D01*
X154851100Y-92171034D01*
X154851100Y-98925100D01*
G36*
X152345061Y-99420400D02*
X152067731Y-99697731D01*
X151965869Y-99850177D01*
X151930100Y-100030000D01*
X151930100Y-106362500D01*
X151930100Y-106380000D01*
X151930100Y-117721100D01*
X145783362Y-117721100D01*
X145783419Y-117656684D01*
X145679232Y-117404533D01*
X145567400Y-117292505D01*
X145567400Y-109220000D01*
X145531631Y-109040177D01*
X145429770Y-108887731D01*
X145186400Y-108644361D01*
X145186400Y-92498900D01*
X149517100Y-92498900D01*
X149517100Y-99420400D01*
X152345061Y-99420400D01*
X152345061Y-99420400D01*
G37*
X152345061Y-99420400D02*
X152067731Y-99697731D01*
X151965869Y-99850177D01*
X151930100Y-100030000D01*
X151930100Y-106362500D01*
X151930100Y-106380000D01*
X151930100Y-117721100D01*
X145783362Y-117721100D01*
X145783419Y-117656684D01*
X145679232Y-117404533D01*
X145567400Y-117292505D01*
X145567400Y-109220000D01*
X145531631Y-109040177D01*
X145429770Y-108887731D01*
X145186400Y-108644361D01*
X145186400Y-92498900D01*
X149517100Y-92498900D01*
X149517100Y-99420400D01*
X152345061Y-99420400D01*
G36*
X169122100Y-109131100D02*
X166281100Y-109131100D01*
X166281100Y-117721100D01*
X152993138Y-117721100D01*
X152869900Y-117597861D01*
X152869900Y-106380000D01*
X152869900Y-106362500D01*
X152869900Y-100224638D01*
X153229638Y-99864900D01*
X155257500Y-99864900D01*
X155257500Y-99864899D01*
X155437323Y-99829131D01*
X155589769Y-99727269D01*
X156272269Y-99044769D01*
X156272270Y-99044769D01*
X156374131Y-98892323D01*
X156409899Y-98712500D01*
X156409900Y-98712500D01*
X156409900Y-98464618D01*
X156440000Y-98464618D01*
X156570747Y-98439250D01*
X156685661Y-98363764D01*
X156762583Y-98249806D01*
X156789618Y-98115000D01*
X156789618Y-96865000D01*
X156764250Y-96734253D01*
X156688764Y-96619339D01*
X156574806Y-96542417D01*
X156440000Y-96515382D01*
X156362400Y-96515382D01*
X156362400Y-96097138D01*
X156549119Y-95910418D01*
X156654820Y-95910511D01*
X156891198Y-95812842D01*
X157072206Y-95632149D01*
X157170288Y-95395942D01*
X157170511Y-95140180D01*
X157072842Y-94903802D01*
X156892149Y-94722794D01*
X156655942Y-94624712D01*
X156400180Y-94624489D01*
X156163802Y-94722158D01*
X155982794Y-94902851D01*
X155884712Y-95139058D01*
X155884618Y-95245842D01*
X155560231Y-95570231D01*
X155458369Y-95722677D01*
X155422600Y-95902500D01*
X155422600Y-96518758D01*
X155309253Y-96540750D01*
X155282900Y-96558061D01*
X155282900Y-92602834D01*
X155432966Y-92752900D01*
X164607034Y-92752900D01*
X165442900Y-91917034D01*
X165442900Y-87417900D01*
X169122100Y-87417900D01*
X169122100Y-109131100D01*
X169122100Y-109131100D01*
G37*
X169122100Y-109131100D02*
X166281100Y-109131100D01*
X166281100Y-117721100D01*
X152993138Y-117721100D01*
X152869900Y-117597861D01*
X152869900Y-106380000D01*
X152869900Y-106362500D01*
X152869900Y-100224638D01*
X153229638Y-99864900D01*
X155257500Y-99864900D01*
X155257500Y-99864899D01*
X155437323Y-99829131D01*
X155589769Y-99727269D01*
X156272269Y-99044769D01*
X156272270Y-99044769D01*
X156374131Y-98892323D01*
X156409899Y-98712500D01*
X156409900Y-98712500D01*
X156409900Y-98464618D01*
X156440000Y-98464618D01*
X156570747Y-98439250D01*
X156685661Y-98363764D01*
X156762583Y-98249806D01*
X156789618Y-98115000D01*
X156789618Y-96865000D01*
X156764250Y-96734253D01*
X156688764Y-96619339D01*
X156574806Y-96542417D01*
X156440000Y-96515382D01*
X156362400Y-96515382D01*
X156362400Y-96097138D01*
X156549119Y-95910418D01*
X156654820Y-95910511D01*
X156891198Y-95812842D01*
X157072206Y-95632149D01*
X157170288Y-95395942D01*
X157170511Y-95140180D01*
X157072842Y-94903802D01*
X156892149Y-94722794D01*
X156655942Y-94624712D01*
X156400180Y-94624489D01*
X156163802Y-94722158D01*
X155982794Y-94902851D01*
X155884712Y-95139058D01*
X155884618Y-95245842D01*
X155560231Y-95570231D01*
X155458369Y-95722677D01*
X155422600Y-95902500D01*
X155422600Y-96518758D01*
X155309253Y-96540750D01*
X155282900Y-96558061D01*
X155282900Y-92602834D01*
X155432966Y-92752900D01*
X164607034Y-92752900D01*
X165442900Y-91917034D01*
X165442900Y-87417900D01*
X169122100Y-87417900D01*
X169122100Y-109131100D01*
M02*
