G04 #@! TF.FileFunction,Copper,L1,Top,Signal*
%FSLAX46Y46*%
G04 Gerber Fmt 4.6, Leading zero omitted, Abs format (unit mm)*
G04 Created by KiCad (PCBNEW (2015-03-06 BZR 5484)-product) date 10/6/2015 9:14:59 PM*
%MOMM*%
G01*
G04 APERTURE LIST*
%ADD10C,0.100000*%
%ADD11C,2.500000*%
%ADD12R,2.500000X2.500000*%
%ADD13R,1.000000X1.250000*%
%ADD14R,1.250000X1.000000*%
%ADD15R,1.270000X4.191000*%
%ADD16R,1.198880X1.198880*%
%ADD17R,0.650000X1.060000*%
%ADD18R,1.200000X2.200000*%
%ADD19R,5.800000X6.400000*%
%ADD20R,1.524000X10.033000*%
%ADD21C,0.685800*%
%ADD22C,1.117600*%
%ADD23C,0.600000*%
%ADD24C,0.177800*%
%ADD25C,0.381000*%
%ADD26C,0.254000*%
G04 APERTURE END LIST*
D10*
D11*
X142440000Y-90505000D03*
X147440000Y-90505000D03*
X152440000Y-90505000D03*
D12*
X167440000Y-90505000D03*
D11*
X162440000Y-90505000D03*
X157440000Y-90505000D03*
D13*
X149590000Y-127952500D03*
X147590000Y-127952500D03*
D14*
X145097500Y-116570000D03*
X145097500Y-114570000D03*
X151447500Y-123460000D03*
X151447500Y-125460000D03*
X145732500Y-123460000D03*
X145732500Y-125460000D03*
X153670000Y-123460000D03*
X153670000Y-125460000D03*
D15*
X146050000Y-132080000D03*
X148590000Y-132080000D03*
X151130000Y-132080000D03*
X153670000Y-132080000D03*
X156210000Y-132080000D03*
X158750000Y-132080000D03*
X161290000Y-132080000D03*
X163830000Y-132080000D03*
D16*
X159288480Y-121920000D03*
X161386520Y-121920000D03*
D14*
X145097500Y-121332500D03*
X145097500Y-119332500D03*
D13*
X165147500Y-121920000D03*
X163147500Y-121920000D03*
D17*
X147640000Y-125560000D03*
X148590000Y-125560000D03*
X149540000Y-125560000D03*
X149540000Y-123360000D03*
X147640000Y-123360000D03*
D18*
X152660000Y-97540000D03*
D19*
X154940000Y-103840000D03*
D18*
X157220000Y-97540000D03*
D20*
X159461200Y-102570000D03*
X150418800Y-102570000D03*
D14*
X161290000Y-125365000D03*
X161290000Y-127365000D03*
X157480000Y-125365000D03*
X157480000Y-127365000D03*
X163830000Y-125365000D03*
X163830000Y-127365000D03*
D21*
X152400000Y-133350000D03*
X152400000Y-132080000D03*
X152400000Y-130810000D03*
X153670000Y-126682500D03*
X151447500Y-126682500D03*
X148590000Y-126682500D03*
X146367500Y-127952500D03*
X145732500Y-126682500D03*
X147320000Y-133350000D03*
X147320000Y-132080000D03*
X147320000Y-130810000D03*
X144145000Y-113030000D03*
X145097500Y-117792500D03*
D22*
X165100000Y-123825000D03*
D21*
X161290000Y-124142500D03*
X157480000Y-124142500D03*
X153987500Y-121602500D03*
X157480000Y-129222500D03*
X153987500Y-128270000D03*
X154940000Y-129222500D03*
X162560000Y-129222500D03*
X161290000Y-129222500D03*
X159067500Y-123190000D03*
X163830000Y-129222500D03*
D23*
X156527500Y-95267500D03*
X151765000Y-95885000D03*
X152717500Y-95885000D03*
X153670000Y-95885000D03*
X154622500Y-100030000D03*
X155892500Y-100030000D03*
X157162500Y-100030000D03*
X153352500Y-100030000D03*
X148907500Y-106380000D03*
X148907500Y-104475000D03*
X148907500Y-98760000D03*
X148907500Y-100665000D03*
X148907500Y-102570000D03*
X160972500Y-102570000D03*
X160972500Y-100665000D03*
X160972500Y-98760000D03*
X160972500Y-104475000D03*
X157162500Y-107632500D03*
X155892500Y-107632500D03*
X154622500Y-107632500D03*
X153352500Y-107632500D03*
X160972500Y-106362500D03*
D21*
X160337500Y-123190000D03*
D24*
X152400000Y-133350000D02*
X152400000Y-132080000D01*
X152400000Y-130810000D02*
X153670000Y-132080000D01*
X151130000Y-132080000D02*
X152400000Y-130810000D01*
D25*
X147640000Y-124462500D02*
X147642500Y-124460000D01*
X147642500Y-124460000D02*
X149542500Y-124460000D01*
X149542500Y-124460000D02*
X149540000Y-124462500D01*
X149540000Y-124462500D02*
X149540000Y-125560000D01*
X147640000Y-125560000D02*
X147640000Y-124462500D01*
X151130000Y-128587500D02*
X150495000Y-127952500D01*
X150495000Y-127952500D02*
X149590000Y-127952500D01*
X151130000Y-132080000D02*
X151130000Y-128587500D01*
X149540000Y-127902500D02*
X149590000Y-127952500D01*
X149540000Y-125560000D02*
X149540000Y-127902500D01*
X153670000Y-125460000D02*
X153670000Y-126682500D01*
X151447500Y-125460000D02*
X151447500Y-126682500D01*
X148590000Y-125560000D02*
X148590000Y-126682500D01*
X147590000Y-127952500D02*
X146367500Y-127952500D01*
X145732500Y-125460000D02*
X145732500Y-126682500D01*
D24*
X147320000Y-133350000D02*
X147320000Y-132080000D01*
X147320000Y-130810000D02*
X148590000Y-132080000D01*
D26*
X145097500Y-113982500D02*
X144145000Y-113030000D01*
X145097500Y-114570000D02*
X145097500Y-113982500D01*
X145097500Y-119332500D02*
X145097500Y-117792500D01*
X145097500Y-117792500D02*
X145097500Y-116570000D01*
D25*
X151347500Y-123360000D02*
X151447500Y-123460000D01*
X149540000Y-123360000D02*
X151347500Y-123360000D01*
X163830000Y-125365000D02*
X164830000Y-125365000D01*
X165100000Y-125095000D02*
X165100000Y-123825000D01*
X164830000Y-125365000D02*
X165100000Y-125095000D01*
X161290000Y-125365000D02*
X163830000Y-125365000D01*
X145732500Y-122872500D02*
X145732500Y-123460000D01*
X147002500Y-121602500D02*
X145732500Y-122872500D01*
X161290000Y-124142500D02*
X161290000Y-125365000D01*
X157480000Y-125365000D02*
X157480000Y-124142500D01*
X165147500Y-121920000D02*
X165100000Y-121967500D01*
X165100000Y-121967500D02*
X165100000Y-123825000D01*
D26*
X157480000Y-128270000D02*
X157480000Y-129222500D01*
X157480000Y-127365000D02*
X157480000Y-128270000D01*
X157480000Y-128270000D02*
X153987500Y-128270000D01*
X155575000Y-129857500D02*
X154940000Y-129222500D01*
X156210000Y-130492500D02*
X155575000Y-129857500D01*
X156210000Y-132080000D02*
X156210000Y-130492500D01*
X161290000Y-130492500D02*
X162560000Y-129222500D01*
X161290000Y-132080000D02*
X161290000Y-130492500D01*
X161290000Y-129222500D02*
X161290000Y-127365000D01*
X160067500Y-127365000D02*
X160020000Y-127317500D01*
X160020000Y-127317500D02*
X160020000Y-124142500D01*
X160020000Y-124142500D02*
X159067500Y-123190000D01*
X161290000Y-127365000D02*
X160067500Y-127365000D01*
X163830000Y-132080000D02*
X163830000Y-130175000D01*
X163830000Y-127365000D02*
X163830000Y-129222500D01*
X157220000Y-97540000D02*
X157220000Y-95960000D01*
X157220000Y-95960000D02*
X156527500Y-95267500D01*
X152717500Y-95885000D02*
X153670000Y-95885000D01*
X152150000Y-97540000D02*
X151765000Y-95885000D01*
X152660000Y-97540000D02*
X152150000Y-97540000D01*
X154622500Y-100030000D02*
X155892500Y-100030000D01*
X154940000Y-103840000D02*
X154940000Y-101617500D01*
X154940000Y-101617500D02*
X153352500Y-100030000D01*
X150418800Y-102570000D02*
X148907500Y-102570000D01*
X148907500Y-104475000D02*
X148907500Y-106380000D01*
X148907500Y-100665000D02*
X148907500Y-98760000D01*
X160972500Y-100665000D02*
X160972500Y-98760000D01*
X160972500Y-104475000D02*
X160972500Y-106362500D01*
X159461200Y-102570000D02*
X160972500Y-102570000D01*
X160972500Y-106362500D02*
X158415000Y-106380000D01*
X157162500Y-107632500D02*
X155892500Y-107632500D01*
X154622500Y-107632500D02*
X153352500Y-107632500D01*
X160020000Y-123190000D02*
X159288480Y-122458480D01*
X160337500Y-123190000D02*
X160020000Y-123190000D01*
X159288480Y-122458480D02*
X159288480Y-121920000D01*
X161386520Y-121920000D02*
X163147500Y-121920000D01*
D24*
G36*
X154851100Y-134782100D02*
X149948900Y-134782100D01*
X149948900Y-130138176D01*
X148678900Y-128868176D01*
X148678900Y-127368378D01*
X148725816Y-127368419D01*
X148977967Y-127264232D01*
X149171054Y-127071482D01*
X149275681Y-126819513D01*
X149275919Y-126546684D01*
X149178864Y-126311795D01*
X149237583Y-126224806D01*
X149264618Y-126090000D01*
X149264618Y-125030000D01*
X149239250Y-124899253D01*
X149163764Y-124784339D01*
X149049806Y-124707417D01*
X148915000Y-124680382D01*
X148265000Y-124680382D01*
X148134253Y-124705750D01*
X148019339Y-124781236D01*
X147942417Y-124895194D01*
X147915382Y-125030000D01*
X147915382Y-126090000D01*
X147940750Y-126220747D01*
X148001047Y-126312539D01*
X147904319Y-126545487D01*
X147904081Y-126818316D01*
X147942418Y-126911100D01*
X147091400Y-126911100D01*
X147091400Y-124231400D01*
X147274022Y-124231400D01*
X147315000Y-124239618D01*
X147965000Y-124239618D01*
X148007355Y-124231400D01*
X149174022Y-124231400D01*
X149215000Y-124239618D01*
X149865000Y-124239618D01*
X149907355Y-124231400D01*
X150088600Y-124231400D01*
X150088600Y-126771400D01*
X150761621Y-126771400D01*
X150761581Y-126818316D01*
X150865768Y-127070467D01*
X151058518Y-127263554D01*
X151310487Y-127368181D01*
X151583316Y-127368419D01*
X151835467Y-127264232D01*
X152028554Y-127071482D01*
X152124997Y-126839220D01*
X153376945Y-127952062D01*
X153301819Y-128132987D01*
X153301581Y-128405816D01*
X153405768Y-128657967D01*
X153598518Y-128851054D01*
X153850487Y-128955681D01*
X154123316Y-128955919D01*
X154346394Y-128863744D01*
X154254319Y-129085487D01*
X154254081Y-129358316D01*
X154358268Y-129610467D01*
X154551018Y-129803554D01*
X154802987Y-129908181D01*
X154851100Y-129908222D01*
X154851100Y-134782100D01*
X154851100Y-134782100D01*
G37*
X154851100Y-134782100D02*
X149948900Y-134782100D01*
X149948900Y-130138176D01*
X148678900Y-128868176D01*
X148678900Y-127368378D01*
X148725816Y-127368419D01*
X148977967Y-127264232D01*
X149171054Y-127071482D01*
X149275681Y-126819513D01*
X149275919Y-126546684D01*
X149178864Y-126311795D01*
X149237583Y-126224806D01*
X149264618Y-126090000D01*
X149264618Y-125030000D01*
X149239250Y-124899253D01*
X149163764Y-124784339D01*
X149049806Y-124707417D01*
X148915000Y-124680382D01*
X148265000Y-124680382D01*
X148134253Y-124705750D01*
X148019339Y-124781236D01*
X147942417Y-124895194D01*
X147915382Y-125030000D01*
X147915382Y-126090000D01*
X147940750Y-126220747D01*
X148001047Y-126312539D01*
X147904319Y-126545487D01*
X147904081Y-126818316D01*
X147942418Y-126911100D01*
X147091400Y-126911100D01*
X147091400Y-124231400D01*
X147274022Y-124231400D01*
X147315000Y-124239618D01*
X147965000Y-124239618D01*
X148007355Y-124231400D01*
X149174022Y-124231400D01*
X149215000Y-124239618D01*
X149865000Y-124239618D01*
X149907355Y-124231400D01*
X150088600Y-124231400D01*
X150088600Y-126771400D01*
X150761621Y-126771400D01*
X150761581Y-126818316D01*
X150865768Y-127070467D01*
X151058518Y-127263554D01*
X151310487Y-127368181D01*
X151583316Y-127368419D01*
X151835467Y-127264232D01*
X152028554Y-127071482D01*
X152124997Y-126839220D01*
X153376945Y-127952062D01*
X153301819Y-128132987D01*
X153301581Y-128405816D01*
X153405768Y-128657967D01*
X153598518Y-128851054D01*
X153850487Y-128955681D01*
X154123316Y-128955919D01*
X154346394Y-128863744D01*
X154254319Y-129085487D01*
X154254081Y-129358316D01*
X154358268Y-129610467D01*
X154551018Y-129803554D01*
X154802987Y-129908181D01*
X154851100Y-129908222D01*
X154851100Y-134782100D01*
G36*
X149517100Y-134782100D02*
X143927900Y-134782100D01*
X143927900Y-130200000D01*
X143916400Y-130142186D01*
X143916400Y-124548900D01*
X146659600Y-124548900D01*
X146659600Y-127342900D01*
X148247100Y-127342900D01*
X148247100Y-129047034D01*
X149517100Y-130317034D01*
X149517100Y-134782100D01*
X149517100Y-134782100D01*
G37*
X149517100Y-134782100D02*
X143927900Y-134782100D01*
X143927900Y-130200000D01*
X143916400Y-130142186D01*
X143916400Y-124548900D01*
X146659600Y-124548900D01*
X146659600Y-127342900D01*
X148247100Y-127342900D01*
X148247100Y-129047034D01*
X149517100Y-130317034D01*
X149517100Y-134782100D01*
G36*
X166281100Y-126276100D02*
X160489900Y-126276100D01*
X160489900Y-124142500D01*
X160454131Y-123962677D01*
X160396116Y-123875851D01*
X160473316Y-123875919D01*
X160725467Y-123771732D01*
X160918554Y-123578982D01*
X161023181Y-123327013D01*
X161023419Y-123054184D01*
X160946926Y-122869058D01*
X161985960Y-122869058D01*
X162116707Y-122843690D01*
X162231621Y-122768204D01*
X162308543Y-122654246D01*
X162313897Y-122627545D01*
X162323250Y-122675747D01*
X162398736Y-122790661D01*
X162512694Y-122867583D01*
X162647500Y-122894618D01*
X163647500Y-122894618D01*
X163778247Y-122869250D01*
X163893161Y-122793764D01*
X163970083Y-122679806D01*
X163997118Y-122545000D01*
X163997118Y-121295000D01*
X163971750Y-121164253D01*
X163896264Y-121049339D01*
X163782306Y-120972417D01*
X163647500Y-120945382D01*
X162647500Y-120945382D01*
X162516753Y-120970750D01*
X162401839Y-121046236D01*
X162324917Y-121160194D01*
X162314521Y-121212032D01*
X162310210Y-121189813D01*
X162234724Y-121074899D01*
X162120766Y-120997977D01*
X161985960Y-120970942D01*
X160787080Y-120970942D01*
X160656333Y-120996310D01*
X160541419Y-121071796D01*
X160464497Y-121185754D01*
X160437462Y-121320560D01*
X160437462Y-122504286D01*
X160237538Y-122504112D01*
X160237538Y-121320560D01*
X160212170Y-121189813D01*
X160136684Y-121074899D01*
X160022726Y-120997977D01*
X159887920Y-120970942D01*
X158689040Y-120970942D01*
X158558293Y-120996310D01*
X158443379Y-121071796D01*
X158366457Y-121185754D01*
X158339422Y-121320560D01*
X158339422Y-122519440D01*
X158364790Y-122650187D01*
X158440276Y-122765101D01*
X158489286Y-122798182D01*
X158486446Y-122801018D01*
X158381819Y-123052987D01*
X158381581Y-123325816D01*
X158485768Y-123577967D01*
X158678518Y-123771054D01*
X158930487Y-123875681D01*
X159088780Y-123875819D01*
X159550100Y-124337138D01*
X159550100Y-126276100D01*
X154711400Y-126276100D01*
X154711400Y-124053600D01*
X152403346Y-124053600D01*
X152422118Y-123960000D01*
X152422118Y-122960000D01*
X152396750Y-122829253D01*
X152321264Y-122714339D01*
X152207306Y-122637417D01*
X152072500Y-122610382D01*
X150822500Y-122610382D01*
X150691753Y-122635750D01*
X150576839Y-122711236D01*
X150499917Y-122825194D01*
X150499635Y-122826600D01*
X150213958Y-122826600D01*
X150189250Y-122699253D01*
X150113764Y-122584339D01*
X149999806Y-122507417D01*
X149865000Y-122480382D01*
X149215000Y-122480382D01*
X149084253Y-122505750D01*
X148969339Y-122581236D01*
X148892417Y-122695194D01*
X148865382Y-122830000D01*
X148865382Y-123799600D01*
X146659600Y-123799600D01*
X146659600Y-124053600D01*
X143916400Y-124053600D01*
X143916400Y-120103900D01*
X144261867Y-120103900D01*
X144337694Y-120155083D01*
X144472500Y-120182118D01*
X145722500Y-120182118D01*
X145853247Y-120156750D01*
X145933701Y-120103900D01*
X166281100Y-120103900D01*
X166281100Y-126276100D01*
X166281100Y-126276100D01*
G37*
X166281100Y-126276100D02*
X160489900Y-126276100D01*
X160489900Y-124142500D01*
X160454131Y-123962677D01*
X160396116Y-123875851D01*
X160473316Y-123875919D01*
X160725467Y-123771732D01*
X160918554Y-123578982D01*
X161023181Y-123327013D01*
X161023419Y-123054184D01*
X160946926Y-122869058D01*
X161985960Y-122869058D01*
X162116707Y-122843690D01*
X162231621Y-122768204D01*
X162308543Y-122654246D01*
X162313897Y-122627545D01*
X162323250Y-122675747D01*
X162398736Y-122790661D01*
X162512694Y-122867583D01*
X162647500Y-122894618D01*
X163647500Y-122894618D01*
X163778247Y-122869250D01*
X163893161Y-122793764D01*
X163970083Y-122679806D01*
X163997118Y-122545000D01*
X163997118Y-121295000D01*
X163971750Y-121164253D01*
X163896264Y-121049339D01*
X163782306Y-120972417D01*
X163647500Y-120945382D01*
X162647500Y-120945382D01*
X162516753Y-120970750D01*
X162401839Y-121046236D01*
X162324917Y-121160194D01*
X162314521Y-121212032D01*
X162310210Y-121189813D01*
X162234724Y-121074899D01*
X162120766Y-120997977D01*
X161985960Y-120970942D01*
X160787080Y-120970942D01*
X160656333Y-120996310D01*
X160541419Y-121071796D01*
X160464497Y-121185754D01*
X160437462Y-121320560D01*
X160437462Y-122504286D01*
X160237538Y-122504112D01*
X160237538Y-121320560D01*
X160212170Y-121189813D01*
X160136684Y-121074899D01*
X160022726Y-120997977D01*
X159887920Y-120970942D01*
X158689040Y-120970942D01*
X158558293Y-120996310D01*
X158443379Y-121071796D01*
X158366457Y-121185754D01*
X158339422Y-121320560D01*
X158339422Y-122519440D01*
X158364790Y-122650187D01*
X158440276Y-122765101D01*
X158489286Y-122798182D01*
X158486446Y-122801018D01*
X158381819Y-123052987D01*
X158381581Y-123325816D01*
X158485768Y-123577967D01*
X158678518Y-123771054D01*
X158930487Y-123875681D01*
X159088780Y-123875819D01*
X159550100Y-124337138D01*
X159550100Y-126276100D01*
X154711400Y-126276100D01*
X154711400Y-124053600D01*
X152403346Y-124053600D01*
X152422118Y-123960000D01*
X152422118Y-122960000D01*
X152396750Y-122829253D01*
X152321264Y-122714339D01*
X152207306Y-122637417D01*
X152072500Y-122610382D01*
X150822500Y-122610382D01*
X150691753Y-122635750D01*
X150576839Y-122711236D01*
X150499917Y-122825194D01*
X150499635Y-122826600D01*
X150213958Y-122826600D01*
X150189250Y-122699253D01*
X150113764Y-122584339D01*
X149999806Y-122507417D01*
X149865000Y-122480382D01*
X149215000Y-122480382D01*
X149084253Y-122505750D01*
X148969339Y-122581236D01*
X148892417Y-122695194D01*
X148865382Y-122830000D01*
X148865382Y-123799600D01*
X146659600Y-123799600D01*
X146659600Y-124053600D01*
X143916400Y-124053600D01*
X143916400Y-120103900D01*
X144261867Y-120103900D01*
X144337694Y-120155083D01*
X144472500Y-120182118D01*
X145722500Y-120182118D01*
X145853247Y-120156750D01*
X145933701Y-120103900D01*
X166281100Y-120103900D01*
X166281100Y-126276100D01*
G36*
X154851100Y-98988600D02*
X151536400Y-98988600D01*
X151536400Y-97083600D01*
X149948900Y-97083600D01*
X149948900Y-87417900D01*
X154597100Y-87417900D01*
X154597100Y-91917034D01*
X154851100Y-92171034D01*
X154851100Y-98988600D01*
X154851100Y-98988600D01*
G37*
X154851100Y-98988600D02*
X151536400Y-98988600D01*
X151536400Y-97083600D01*
X149948900Y-97083600D01*
X149948900Y-87417900D01*
X154597100Y-87417900D01*
X154597100Y-91917034D01*
X154851100Y-92171034D01*
X154851100Y-98988600D01*
G36*
X165011100Y-91738176D02*
X164428176Y-92321100D01*
X155611824Y-92321100D01*
X155028900Y-91738176D01*
X155028900Y-87417900D01*
X165011100Y-87417900D01*
X165011100Y-91738176D01*
X165011100Y-91738176D01*
G37*
X165011100Y-91738176D02*
X164428176Y-92321100D01*
X155611824Y-92321100D01*
X155028900Y-91738176D01*
X155028900Y-87417900D01*
X165011100Y-87417900D01*
X165011100Y-91738176D01*
G36*
X169122100Y-109131100D02*
X166281100Y-109131100D01*
X166281100Y-117721100D01*
X158169618Y-117721100D01*
X158169618Y-98640000D01*
X158169618Y-96440000D01*
X158144250Y-96309253D01*
X158068764Y-96194339D01*
X157954806Y-96117417D01*
X157820000Y-96090382D01*
X157689900Y-96090382D01*
X157689900Y-95960000D01*
X157654131Y-95780177D01*
X157552270Y-95627731D01*
X157170418Y-95245880D01*
X157170511Y-95140180D01*
X157072842Y-94903802D01*
X156892149Y-94722794D01*
X156655942Y-94624712D01*
X156400180Y-94624489D01*
X156163802Y-94722158D01*
X155982794Y-94902851D01*
X155884712Y-95139058D01*
X155884489Y-95394820D01*
X155982158Y-95631198D01*
X156162851Y-95812206D01*
X156399058Y-95910288D01*
X156505842Y-95910381D01*
X156685843Y-96090382D01*
X156620000Y-96090382D01*
X156489253Y-96115750D01*
X156374339Y-96191236D01*
X156297417Y-96305194D01*
X156270382Y-96440000D01*
X156270382Y-98640000D01*
X156295750Y-98770747D01*
X156371236Y-98885661D01*
X156485194Y-98962583D01*
X156620000Y-98989618D01*
X157820000Y-98989618D01*
X157950747Y-98964250D01*
X158065661Y-98888764D01*
X158142583Y-98774806D01*
X158169618Y-98640000D01*
X158169618Y-117721100D01*
X145783362Y-117721100D01*
X145783419Y-117656684D01*
X145685465Y-117419618D01*
X145722500Y-117419618D01*
X145853247Y-117394250D01*
X145968161Y-117318764D01*
X146045083Y-117204806D01*
X146072118Y-117070000D01*
X146072118Y-116070000D01*
X146046750Y-115939253D01*
X145971264Y-115824339D01*
X145857306Y-115747417D01*
X145722500Y-115720382D01*
X144472500Y-115720382D01*
X144341753Y-115745750D01*
X144226839Y-115821236D01*
X144149917Y-115935194D01*
X144122882Y-116070000D01*
X144122882Y-117070000D01*
X144148250Y-117200747D01*
X144223736Y-117315661D01*
X144337694Y-117392583D01*
X144472500Y-117419618D01*
X144509760Y-117419618D01*
X144411819Y-117655487D01*
X144411761Y-117721100D01*
X143598900Y-117721100D01*
X143598900Y-113453661D01*
X143756018Y-113611054D01*
X144007987Y-113715681D01*
X144166280Y-113715819D01*
X144253912Y-113803451D01*
X144226839Y-113821236D01*
X144149917Y-113935194D01*
X144122882Y-114070000D01*
X144122882Y-115070000D01*
X144148250Y-115200747D01*
X144223736Y-115315661D01*
X144337694Y-115392583D01*
X144472500Y-115419618D01*
X145722500Y-115419618D01*
X145853247Y-115394250D01*
X145968161Y-115318764D01*
X146045083Y-115204806D01*
X146072118Y-115070000D01*
X146072118Y-114070000D01*
X146046750Y-113939253D01*
X145971264Y-113824339D01*
X145857306Y-113747417D01*
X145722500Y-113720382D01*
X145476643Y-113720382D01*
X145429769Y-113650231D01*
X145429769Y-113650230D01*
X144830781Y-113051243D01*
X144830919Y-112894184D01*
X144726732Y-112642033D01*
X144533982Y-112448946D01*
X144282013Y-112344319D01*
X144009184Y-112344081D01*
X143757033Y-112448268D01*
X143598900Y-112606125D01*
X143598900Y-109131100D01*
X140757900Y-109131100D01*
X140757900Y-92498900D01*
X149517100Y-92498900D01*
X149517100Y-97515400D01*
X151104600Y-97515400D01*
X151104600Y-99420400D01*
X155282900Y-99420400D01*
X155282900Y-92602834D01*
X155432966Y-92752900D01*
X164607034Y-92752900D01*
X165442900Y-91917034D01*
X165442900Y-87417900D01*
X169122100Y-87417900D01*
X169122100Y-109131100D01*
X169122100Y-109131100D01*
G37*
X169122100Y-109131100D02*
X166281100Y-109131100D01*
X166281100Y-117721100D01*
X158169618Y-117721100D01*
X158169618Y-98640000D01*
X158169618Y-96440000D01*
X158144250Y-96309253D01*
X158068764Y-96194339D01*
X157954806Y-96117417D01*
X157820000Y-96090382D01*
X157689900Y-96090382D01*
X157689900Y-95960000D01*
X157654131Y-95780177D01*
X157552270Y-95627731D01*
X157170418Y-95245880D01*
X157170511Y-95140180D01*
X157072842Y-94903802D01*
X156892149Y-94722794D01*
X156655942Y-94624712D01*
X156400180Y-94624489D01*
X156163802Y-94722158D01*
X155982794Y-94902851D01*
X155884712Y-95139058D01*
X155884489Y-95394820D01*
X155982158Y-95631198D01*
X156162851Y-95812206D01*
X156399058Y-95910288D01*
X156505842Y-95910381D01*
X156685843Y-96090382D01*
X156620000Y-96090382D01*
X156489253Y-96115750D01*
X156374339Y-96191236D01*
X156297417Y-96305194D01*
X156270382Y-96440000D01*
X156270382Y-98640000D01*
X156295750Y-98770747D01*
X156371236Y-98885661D01*
X156485194Y-98962583D01*
X156620000Y-98989618D01*
X157820000Y-98989618D01*
X157950747Y-98964250D01*
X158065661Y-98888764D01*
X158142583Y-98774806D01*
X158169618Y-98640000D01*
X158169618Y-117721100D01*
X145783362Y-117721100D01*
X145783419Y-117656684D01*
X145685465Y-117419618D01*
X145722500Y-117419618D01*
X145853247Y-117394250D01*
X145968161Y-117318764D01*
X146045083Y-117204806D01*
X146072118Y-117070000D01*
X146072118Y-116070000D01*
X146046750Y-115939253D01*
X145971264Y-115824339D01*
X145857306Y-115747417D01*
X145722500Y-115720382D01*
X144472500Y-115720382D01*
X144341753Y-115745750D01*
X144226839Y-115821236D01*
X144149917Y-115935194D01*
X144122882Y-116070000D01*
X144122882Y-117070000D01*
X144148250Y-117200747D01*
X144223736Y-117315661D01*
X144337694Y-117392583D01*
X144472500Y-117419618D01*
X144509760Y-117419618D01*
X144411819Y-117655487D01*
X144411761Y-117721100D01*
X143598900Y-117721100D01*
X143598900Y-113453661D01*
X143756018Y-113611054D01*
X144007987Y-113715681D01*
X144166280Y-113715819D01*
X144253912Y-113803451D01*
X144226839Y-113821236D01*
X144149917Y-113935194D01*
X144122882Y-114070000D01*
X144122882Y-115070000D01*
X144148250Y-115200747D01*
X144223736Y-115315661D01*
X144337694Y-115392583D01*
X144472500Y-115419618D01*
X145722500Y-115419618D01*
X145853247Y-115394250D01*
X145968161Y-115318764D01*
X146045083Y-115204806D01*
X146072118Y-115070000D01*
X146072118Y-114070000D01*
X146046750Y-113939253D01*
X145971264Y-113824339D01*
X145857306Y-113747417D01*
X145722500Y-113720382D01*
X145476643Y-113720382D01*
X145429769Y-113650231D01*
X145429769Y-113650230D01*
X144830781Y-113051243D01*
X144830919Y-112894184D01*
X144726732Y-112642033D01*
X144533982Y-112448946D01*
X144282013Y-112344319D01*
X144009184Y-112344081D01*
X143757033Y-112448268D01*
X143598900Y-112606125D01*
X143598900Y-109131100D01*
X140757900Y-109131100D01*
X140757900Y-92498900D01*
X149517100Y-92498900D01*
X149517100Y-97515400D01*
X151104600Y-97515400D01*
X151104600Y-99420400D01*
X155282900Y-99420400D01*
X155282900Y-92602834D01*
X155432966Y-92752900D01*
X164607034Y-92752900D01*
X165442900Y-91917034D01*
X165442900Y-87417900D01*
X169122100Y-87417900D01*
X169122100Y-109131100D01*
M02*
