G04 #@! TF.FileFunction,Soldermask,Bot*
%FSLAX46Y46*%
G04 Gerber Fmt 4.6, Leading zero omitted, Abs format (unit mm)*
G04 Created by KiCad (PCBNEW (2015-03-06 BZR 5484)-product) date 10/6/2015 9:14:59 PM*
%MOMM*%
G01*
G04 APERTURE LIST*
%ADD10C,0.100000*%
%ADD11C,2.900000*%
%ADD12R,2.900000X2.900000*%
%ADD13C,1.035000*%
%ADD14R,1.400000X1.650000*%
%ADD15R,0.850000X1.850000*%
%ADD16C,1.085800*%
%ADD17C,1.517600*%
%ADD18C,1.000000*%
G04 APERTURE END LIST*
D10*
D11*
X142440000Y-90505000D03*
X147440000Y-90505000D03*
X152440000Y-90505000D03*
D12*
X167440000Y-90505000D03*
D11*
X162440000Y-90505000D03*
X157440000Y-90505000D03*
D13*
X163961513Y-121788487D03*
X163063487Y-122686513D03*
X163063487Y-121788487D03*
D14*
X155940000Y-97490000D03*
X153940000Y-97490000D03*
D15*
X154895000Y-121510000D03*
X155545000Y-121510000D03*
X156195000Y-121510000D03*
X156845000Y-121510000D03*
X157495000Y-121510000D03*
X158145000Y-121510000D03*
X158795000Y-121510000D03*
X158795000Y-127410000D03*
X158145000Y-127410000D03*
X157495000Y-127410000D03*
X156845000Y-127410000D03*
X156195000Y-127410000D03*
X155545000Y-127410000D03*
X154895000Y-127410000D03*
D16*
X152400000Y-133350000D03*
X152400000Y-132080000D03*
X152400000Y-130810000D03*
X153670000Y-126682500D03*
X151447500Y-126682500D03*
X148590000Y-126682500D03*
X146367500Y-127952500D03*
X145732500Y-126682500D03*
X147320000Y-133350000D03*
X147320000Y-132080000D03*
X147320000Y-130810000D03*
X144145000Y-113030000D03*
X145097500Y-117792500D03*
D17*
X165100000Y-123825000D03*
D16*
X161290000Y-124142500D03*
X157480000Y-124142500D03*
X153987500Y-121602500D03*
X157480000Y-129222500D03*
X153987500Y-128270000D03*
X154940000Y-129222500D03*
X162560000Y-129222500D03*
X161290000Y-129222500D03*
X159067500Y-123190000D03*
X163830000Y-129222500D03*
D18*
X156527500Y-95267500D03*
X151765000Y-95885000D03*
X152717500Y-95885000D03*
X153670000Y-95885000D03*
X154622500Y-100030000D03*
X155892500Y-100030000D03*
X157162500Y-100030000D03*
X153352500Y-100030000D03*
X148907500Y-106380000D03*
X148907500Y-104475000D03*
X148907500Y-98760000D03*
X148907500Y-100665000D03*
X148907500Y-102570000D03*
X160972500Y-102570000D03*
X160972500Y-100665000D03*
X160972500Y-98760000D03*
X160972500Y-104475000D03*
X157162500Y-107632500D03*
X155892500Y-107632500D03*
X154622500Y-107632500D03*
X153352500Y-107632500D03*
X160972500Y-106362500D03*
D16*
X160337500Y-123190000D03*
M02*
