M48
;DRILL file {kicad (2015-03-06 BZR 5484)-product} date 10/7/2015 9:22:11 PM
;FORMAT={-:-/ absolute / metric / decimal}
FMAT,2
METRIC,TZ
T1C0.330
T2C0.400
T3C0.762
T4C1.500
%
G90
G05
M71
T1
X144.145Y-113.03
X145.098Y-117.792
X145.098Y-126.682
X147.32Y-130.81
X147.32Y-132.08
X147.32Y-133.35
X148.59Y-126.682
X151.447Y-126.682
X152.4Y-130.81
X152.4Y-132.08
X152.4Y-133.35
X153.987Y-121.602
X153.987Y-126.682
X153.987Y-128.27
X154.94Y-129.223
X157.48Y-124.143
X157.48Y-129.223
X159.068Y-123.19
X160.338Y-123.19
X161.29Y-124.143
X161.29Y-129.223
X162.56Y-129.223
X163.83Y-129.223
T2
X148.908Y-98.76
X148.908Y-100.665
X148.908Y-102.57
X148.908Y-104.475
X148.908Y-106.38
X151.765Y-95.885
X152.718Y-95.885
X153.352Y-100.03
X153.352Y-107.632
X153.67Y-95.885
X154.623Y-100.03
X154.623Y-107.632
X155.892Y-100.03
X155.892Y-107.632
X156.528Y-95.267
X157.162Y-100.03
X157.162Y-107.632
X160.973Y-98.76
X160.973Y-100.665
X160.973Y-102.57
X160.973Y-104.475
X160.973Y-106.363
T3
X165.1Y-123.825
T4
X142.44Y-90.505
X147.44Y-90.505
X152.44Y-90.505
X157.44Y-90.505
X162.44Y-90.505
X167.44Y-90.505
T0
M30
